<?xml version="1.0" encoding="UTF-8"?>
<svg width="27px" height="20px" viewBox="0 0 27 20" version="1.1" xmlns="http://www.w3.org/2000/svg" xmlns:xlink="http://www.w3.org/1999/xlink">
    <!-- Generator: Sketch 49 (51002) - http://www.bohemiancoding.com/sketch -->
    <title>Fill 1</title>
    <desc>Created with Sketch.</desc>
    <defs></defs>
    <g id="Design-flow-1-tablet" stroke="none" stroke-width="1" fill="none" fill-rule="evenodd">
        <path d="M17.2471,9.9433 C17.2471,12.1203 15.5261,13.8923 13.4111,13.8923 C11.2961,13.8923 9.5751,12.1203 9.5751,9.9433 C9.5751,7.7663 11.2961,5.9943 13.4111,5.9943 C15.5261,5.9943 17.2471,7.7663 17.2471,9.9433 Z M18.7471,9.9433 C18.7471,6.9393 16.3531,4.4943 13.4111,4.4943 C10.4691,4.4943 8.0751,6.9393 8.0751,9.9433 C8.0751,12.9473 10.4691,15.3923 13.4111,15.3923 C16.3531,15.3923 18.7471,12.9473 18.7471,9.9433 Z M1.5001,18.3873 L25.3231,18.3873 L25.3231,1.5003 L1.5001,1.5003 L1.5001,18.3873 Z M9.99999993e-05,19.8873 L26.8231,19.8873 L26.8231,0.0003 L9.99999993e-05,0.0003 L9.99999993e-05,19.8873 Z M23.6301,4.2743 C23.6301,4.7813 23.2281,5.1933 22.7331,5.1933 C22.2371,5.1933 21.8351,4.7813 21.8351,4.2743 C21.8351,3.7663 22.2371,3.3543 22.7331,3.3543 C23.2281,3.3543 23.6301,3.7663 23.6301,4.2743 Z" id="Fill-1" fill="#000000"></path>
    </g>
</svg>