<svg width="64" height="25" viewBox="0 0 64 25" fill="none" xmlns="http://www.w3.org/2000/svg">
<path fill-rule="evenodd" clip-rule="evenodd" d="M9.03167 8.74989V10.9136L14.2029 10.9113C14.0443 12.1047 13.6419 12.9784 13.0303 13.59C12.2761 14.3442 11.0988 15.1743 9.03167 15.1743C5.84476 15.1743 3.35225 12.6059 3.35225 9.419C3.35225 6.23209 5.84476 3.6637 9.03167 3.6637C10.7516 3.6637 12.007 4.33971 12.9337 5.20887L14.4605 3.68209C13.1682 2.44734 11.4483 1.5 9.03397 1.5C4.66978 1.5 1 5.05481 1 9.419C1 13.7832 4.66978 17.338 9.03397 17.338C11.3885 17.338 13.1659 16.5654 14.557 15.1168C15.9872 13.6866 16.431 11.6793 16.431 10.0559C16.431 9.57306 16.3942 9.12698 16.323 8.74989H9.03167ZM52.6529 17.0276V2.08179H50.4685V17.0276H52.6529ZM22.4164 17.3404C25.2354 17.3404 27.5325 15.1767 27.5325 12.2404C27.5325 9.28339 25.2354 7.14038 22.4164 7.14038C19.5974 7.14038 17.3003 9.28339 17.3003 12.2404C17.3003 15.1767 19.5974 17.3404 22.4164 17.3404ZM22.4164 9.15002C23.9615 9.15002 25.2929 10.4055 25.2929 12.2404C25.2929 14.0546 23.9615 15.3307 22.4164 15.3307C20.8712 15.3307 19.5399 14.0569 19.5399 12.2404C19.5399 10.4055 20.8712 9.15002 22.4164 9.15002ZM33.4532 17.3404C36.2723 17.3404 38.5693 15.1767 38.5693 12.2404C38.5693 9.28339 36.2723 7.14038 33.4532 7.14038C30.6342 7.14038 28.3372 9.28569 28.3372 12.2404C28.3372 15.1767 30.6342 17.3404 33.4532 17.3404ZM33.4532 9.15002C34.9984 9.15002 36.3297 10.4055 36.3297 12.2404C36.3297 14.0546 34.9984 15.3307 33.4532 15.3307C31.9081 15.3307 30.5767 14.0569 30.5767 12.2404C30.5767 10.4055 31.9081 9.15002 33.4532 9.15002ZM49.1463 7.45079V16.6046C49.1463 20.3709 46.9251 21.9092 44.2992 21.9092C41.8274 21.9092 40.3397 20.2559 39.7787 18.9039L41.7285 18.0922C42.0757 18.9223 42.9265 19.9018 44.2969 19.9018C45.9778 19.9018 47.0194 18.8648 47.0194 16.9127V16.1792H46.9412C46.4399 16.7977 45.4742 17.3381 44.2555 17.3381C41.7055 17.3381 39.3694 15.1169 39.3694 12.2588C39.3694 9.37996 41.7055 7.14038 44.2555 7.14038C45.4719 7.14038 46.4376 7.68073 46.9412 8.28086H47.0194V7.45079H49.1463ZM47.178 12.2588C47.178 10.463 45.9801 9.15002 44.4556 9.15002C42.9104 9.15002 41.6159 10.463 41.6159 12.2588C41.6159 14.0362 42.9104 15.3307 44.4556 15.3307C45.9801 15.3307 47.178 14.0362 47.178 12.2588ZM61.1651 13.9189L62.9034 15.0778C62.3423 15.9078 60.9903 17.338 58.6542 17.338C55.757 17.338 53.5933 15.0985 53.5933 12.238C53.5933 9.20519 55.7754 7.13806 58.4035 7.13806C61.0501 7.13806 62.3446 9.24428 62.7677 10.3825L63 10.9619L56.1823 13.7855C56.7043 14.8087 57.516 15.3307 58.6542 15.3307C59.7946 15.3307 60.5856 14.7696 61.1651 13.9189ZM55.8144 12.084L60.3718 10.1916C60.1212 9.55469 59.367 9.11091 58.4794 9.11091C57.3412 9.11091 55.757 10.1157 55.8144 12.084Z" fill="#B4B4B4"/>
</svg>
