<?xml version="1.0" encoding="UTF-8"?>
<svg width="100px" height="32px" viewBox="0 0 100 32" version="1.1" xmlns="http://www.w3.org/2000/svg" xmlns:xlink="http://www.w3.org/1999/xlink">
    <!-- Generator: Sketch 49 (51002) - http://www.bohemiancoding.com/sketch -->
    <title>Logo</title>
    <desc>Created with Sketch.</desc>
    <defs>
        <polygon id="path-1" points="0 0.873685208 15.702233 0.873685208 15.702233 24.595411 0 24.595411"></polygon>
        <polygon id="path-3" points="0.441553398 0.48450515 28.5405825 0.48450515 28.5405825 30.7500293 0.441553398 30.7500293"></polygon>
    </defs>
    <g id="Design-flow-1-tablet" stroke="none" stroke-width="1" fill="none" fill-rule="evenodd">
        <g id="Logo">
            <path d="M9.98708738,13.5026262 C9.98708738,12.6166409 9.36669903,12.412922 8.40262136,12.412922 L6.61135922,12.412922 L6.61135922,14.8661978 L9.09194175,14.8661978 C9.77932039,14.5942522 9.98708738,13.9119859 9.98708738,13.5026262" id="Fill-1" fill="#FA4C25"></path>
            <path d="M8.75543689,17.3206267 L6.61174757,17.3206267 L6.61174757,19.7748634 L8.55446602,19.7748634 C9.6923301,19.7748634 10.2292233,19.3107301 10.2292233,18.5141122 C10.2292233,17.6531114 9.6923301,17.3206267 8.75543689,17.3206267" id="Fill-3" fill="#FA4C25"></path>
            <g id="Group-7" transform="translate(0.000000, 3.359345)">
                <mask id="mask-2" fill="white">
                    <use xlink:href="#path-1"></use>
                </mask>
                <g id="Clip-6"></g>
                <path d="M9.84300971,18.8691789 L3.3061165,18.8691789 L3.3061165,5.7811977 L9.54203883,5.7811977 C12.2468932,5.7811977 13.825534,7.04483172 13.825534,9.12718527 C13.825534,10.317788 12.9983495,11.4324765 12.0206796,11.8793129 C13.0731068,12.2502351 14.2002913,13.1439078 14.2002913,15.1503473 C14.2002913,17.2327008 12.5468932,18.8691789 9.84300971,18.8691789 Z M-0.00067961165,24.595411 L15.702233,24.595411 L15.702233,0.873685208 L-0.00067961165,0.873685208 L-0.00067961165,24.595411 Z" id="Fill-5" fill="#FA4C25" mask="url(#mask-2)"></path>
            </g>
            <g id="Group-10" transform="translate(35.922330, 0.476529)">
                <mask id="mask-4" fill="white">
                    <use xlink:href="#path-3"></use>
                </mask>
                <g id="Clip-9"></g>
                <path d="M25.2347573,21.7519942 L21.6415534,21.7519942 L16.9697087,14.1298307 L16.9697087,21.7519942 L13.6648544,21.7519942 L13.6648544,8.66401295 L17.2580583,8.66401295 L21.928932,16.3793875 L21.928932,8.66401295 L25.2347573,8.66401295 L25.2347573,21.7519942 Z M0.441553398,0.48450515 L0.441553398,8.66401295 L6.05223301,8.66401295 C8.6192233,8.66401295 10.6163107,9.99875641 10.6163107,12.6009776 C10.6163107,14.3104871 9.7638835,15.8345354 8.34058252,16.3909188 L12.1143689,21.7519942 L7.88621359,21.7519942 L5.38815534,17.6622403 L2.92116505,17.6622403 L2.92116505,21.7519942 L0.441553398,21.7519942 L0.441553398,30.7502215 L28.5405825,30.7502215 L28.5405825,0.48450515 L0.441553398,0.48450515 Z" id="Fill-8" fill="#FA4C25" mask="url(#mask-4)"></path>
            </g>
            <path d="M43.0100971,13.5950684 C43.0100971,12.4640439 42.3013592,11.5943947 40.7042718,11.5943947 L38.8431068,11.5943947 L38.8431068,15.6851095 L41.3809709,15.6851095 C42.3596117,15.6851095 43.0100971,14.6617101 43.0100971,13.5950684" id="Fill-11" fill="#FA4C25"></path>
            <polygon id="Fill-13" fill="#FA4C25" points="21.7418447 18.1389618 24.731165 18.1389618 23.2564078 13.1084492"></polygon>
            <polygon id="Fill-15" fill="#FA4C25" points="20.6609709 7.50473684 20.6609709 13.1185391 21.7308738 9.95897356 25.6667961 9.95897356 29.752233 22.6827591 29.752233 23.0469548 26.2153398 23.0469548 25.5784466 20.5927181 21.0881553 20.5927181 20.6609709 22.3925557 20.6609709 25.5011915 31.4046602 25.5011915 31.4046602 7.50473684"></polygon>
            <polygon id="Fill-17" fill="#FA4C25" points="68.5950485 7.50473684 68.5950485 9.95897356 76.8600971 9.95897356 76.8600971 12.4122493 71.9008738 12.4122493 71.9008738 14.8664861 76.0329126 14.8664861 76.0329126 17.3207228 71.9008738 17.3207228 71.9008738 20.5927181 76.8600971 20.5927181 76.8600971 23.0469548 68.5950485 23.0469548 68.5950485 25.5011915 79.3387379 25.5011915 79.3387379 7.50473684"></polygon>
            <path d="M89.3048544,19.0271572 C89.3048544,18.2132424 88.961165,17.9547499 87.7223301,17.548273 L86.3485437,17.1052804 C85.6757282,16.8833036 84.8825243,16.549858 85.123301,15.8666308 L85.123301,19.5595171 C85.0368932,19.9275565 86.2174757,20.2110333 87.2417476,20.2110333 C88.823301,20.2110333 89.3048544,19.7670798 89.3048544,19.0271572" id="Fill-19" fill="#FA4C25"></path>
            <path d="M85.1235922,4.23302982 L85.1235922,11.3420522 C85.9847573,10.4051373 87.4546602,9.9006446 89.3197087,9.9006446 C90.2857282,9.9006446 91.8721359,10.2715668 92.5614563,10.7895126 L92.5614563,13.2312571 L92.2857282,13.2312571 C91.5964078,12.7863427 90.1478641,12.5643659 89.1818447,12.5643659 C88.2158252,12.5643659 87.3876699,12.8603349 87.3876699,13.6002575 C87.3876699,14.3401801 87.8187379,14.5631178 88.2847573,14.7101414 L89.6653398,15.1540949 C91.2507767,15.6710798 93.2517476,16.2639788 93.2517476,19.2227082 C93.2517476,21.6644527 91.5284466,23.2182901 88.0779612,23.2182901 C87.2478641,23.2182901 85.9915534,23.0088055 85.1235922,22.6225083 L85.1235922,27.9547556 L99.9993204,27.9547556 L99.9993204,4.23302982 L85.1235922,4.23302982 Z" id="Fill-21" fill="#FA4C25"></path>
        </g>
    </g>
</svg>