<?xml version="1.0" encoding="UTF-8"?>
<svg width="1684px" height="1787px" viewBox="0 0 1684 1787" version="1.1" xmlns="http://www.w3.org/2000/svg" xmlns:xlink="http://www.w3.org/1999/xlink">
    <!-- Generator: Sketch 53.2 (72643) - https://sketchapp.com -->
    <title>Path</title>
    <desc>Created with Sketch.</desc>
    <g id="Page-1" stroke="none" stroke-width="1" fill="none" fill-rule="evenodd">
        <g id="Share-Icon-PNG" fill="#6A6A6A" fill-rule="nonzero">
            <g id="Group" transform="translate(842.000000, 893.500000) scale(-1, 1) rotate(-180.000000) translate(-842.000000, -893.500000) translate(0.000000, -0.000000)">
                <path d="M1334.5,1786.3 C1313.3,1784.3 1287.3,1778.9 1266.6,1772.3 C1169.8,1741.4 1093.4,1666.3 1060.8,1570 C1044,1520.2 1039.7,1465.9 1048.6,1414 C1053.4,1386.2 1053.4,1386.9 1051.6,1378.3 C1048.8,1364.6 1041,1352.2 1030.6,1345.1 C1023.3,1340.1 608.7,1108.7 602.5,1106.2 C595.2,1103.2 582.2,1102.2 573.7,1103.9 C563,1106.2 555.1,1111.1 541.5,1124 C514.7,1149.5 487.5,1168.4 456.6,1183 C378.8,1219.9 288.7,1223.8 208,1193.8 C176.9,1182.2 149.5,1166.9 122,1145.6 C108.7,1135.3 79.7,1106.6 69.2,1093.3 C31.4,1045.3 8.4,989.8 1.5,930 C-0.5,912.2 -0.5,875.8 1.5,858 C9.6,787.4 40.3,722.6 89.4,672.1 C141.5,618.7 204.9,586.5 278.1,576.5 C294.5,574.3 328.6,573.5 345.5,574.9 C407.4,580.3 464.3,602.1 513.5,639.4 C522.4,646.2 532.9,655.3 546.5,668 C551.5,672.7 557.8,677.7 560.6,679.2 C572.1,685.4 589,686.9 601,682.7 C608.8,680 1028.5,445.4 1034.9,440.2 C1044.4,432.4 1050.8,420.8 1053.2,406.9 C1054.3,400.7 1054.2,398.6 1052.1,387.7 C1043.7,343.2 1042.7,304.6 1049.1,267 C1064.5,175.8 1116.9,97.4 1195.7,47.7 C1209.6,39 1237.1,25.4 1252.6,19.7 C1276.6,10.8 1303.6,4.4 1329,1.5 C1346.9,-0.5 1383.4,-0.5 1401,1.5 C1475.5,10.1 1543.9,44.2 1596.3,98.9 C1642.2,146.9 1671.2,206.8 1681.6,275.3 C1683.7,289.1 1684.6,333.9 1683.1,349.6 C1678.5,397.3 1663.9,441.8 1639.6,482.8 C1610.9,531 1567.9,572.5 1518.3,600 C1486.3,617.7 1449,630.2 1410.5,636.2 C1394.1,638.7 1352.1,639.8 1334.4,638.1 C1294.7,634.3 1259.1,624.1 1222.5,606 C1193.3,591.7 1168,573.9 1142.4,549.8 C1129,537.2 1122.1,532.9 1111.4,530.4 C1102.7,528.4 1090.6,529 1082.9,531.9 C1079.9,533.1 982,587.3 865.4,652.3 C660.9,766.6 653.3,770.9 646.4,777.6 C638.2,785.6 633.8,793.6 631.4,805 C629.7,813.3 629.8,815.4 633.5,835.5 C637.5,857.8 638.5,869.3 638.4,895 C638.3,921.3 637.1,934.6 632.4,958.4 C629.4,973.2 629.6,979.7 633,990.1 C635.6,998.1 642.7,1008.7 648.6,1013.5 C654.7,1018.5 1075.7,1253.5 1082.9,1256 C1091.5,1258.9 1100.3,1259.4 1108.8,1257.6 C1120.5,1255.2 1128.5,1250.3 1142.7,1236.8 C1196.5,1185.6 1261.7,1155.7 1334.3,1148.9 C1350.6,1147.4 1393.6,1148.3 1407.7,1150.4 C1444.4,1156 1474.2,1165.3 1506,1181.1 C1540.3,1198.2 1566.6,1217.4 1593.5,1245.1 C1661,1314.7 1692.7,1408.7 1681.4,1505.9 C1670.1,1603.3 1612.5,1691.7 1526.8,1742.9 C1515.3,1749.8 1487.9,1762.9 1476,1767.3 C1451.7,1776.3 1425.7,1782.5 1400,1785.5 C1387.6,1786.9 1346.3,1787.4 1334.5,1786.3 Z" id="Path"></path>
            </g>
        </g>
    </g>
</svg>