<?xml version="1.0" encoding="UTF-8"?>
<svg width="476px" height="439px" viewBox="0 0 476 439" version="1.1" xmlns="http://www.w3.org/2000/svg" xmlns:xlink="http://www.w3.org/1999/xlink">
    <!-- Generator: Sketch 53.2 (72643) - https://sketchapp.com -->
    <title>share-symbol</title>
    <desc>Created with Sketch.</desc>
    <g id="Page-1" stroke="none" stroke-width="1" fill="none" fill-rule="evenodd">
        <g id="share-symbol" fill="#6A6A6A" fill-rule="nonzero">
            <path d="M469.658,115.333 L360.029,5.697 C356.408,2.08 352.12,0.273 347.175,0.273 C344.9,0.273 342.514,0.749 340.043,1.698 C332.617,4.935 328.904,10.55 328.904,18.544 L328.904,73.365 L283.221,73.365 C263.047,73.365 244.342,74.412 227.12,76.505 C209.896,78.597 194.716,81.498 181.583,85.213 C168.449,88.921 156.6,93.539 146.036,99.059 C135.474,104.577 126.481,110.431 119.056,116.618 C111.63,122.804 105.113,129.848 99.498,137.747 C93.88,145.645 89.41,153.4 86.076,161.014 C82.748,168.63 80.084,177.004 78.084,186.139 C76.082,195.276 74.751,203.84 74.085,211.832 C73.419,219.826 73.086,228.489 73.086,237.811 C73.086,248.474 74.754,260.082 78.084,272.649 C81.415,285.208 85.079,296.056 89.076,305.194 C93.072,314.324 97.785,323.797 103.21,333.597 C108.634,343.399 112.392,349.914 114.486,353.152 C116.579,356.382 118.581,359.339 120.483,362.002 C122.386,364.476 124.86,365.712 127.904,365.712 C128.669,365.712 129.806,365.526 131.331,365.144 C135.708,363.049 137.61,359.819 137.039,355.439 C128.475,291.485 135.519,246.466 158.167,220.392 C180.059,195.458 221.742,182.989 283.218,182.989 L328.904,182.989 L328.904,237.805 C328.904,245.806 332.614,251.418 340.04,254.656 C342.511,255.607 344.893,256.08 347.172,256.08 C352.312,256.08 356.597,254.273 360.026,250.659 L469.659,141.022 C473.272,137.403 475.083,133.124 475.083,128.175 C475.082,123.23 473.271,118.944 469.658,115.333 Z" id="Path"></path>
            <path d="M395.996,274.356 C392.371,272.827 389.045,273.593 386.003,276.639 C381.055,281.207 375.911,284.732 370.583,287.203 C367.15,289.105 365.442,291.863 365.442,295.48 L365.442,356.584 C365.442,369.146 360.976,379.892 352.027,388.844 C343.082,397.79 332.323,402.263 319.763,402.263 L82.222,402.263 C69.658,402.263 58.904,397.79 49.958,388.844 C41.011,379.892 36.54,369.147 36.54,356.584 L36.54,119.039 C36.54,106.476 41.011,95.726 49.958,86.78 C58.903,77.833 69.657,73.362 82.222,73.362 L114.199,73.362 C115.34,73.362 116.865,72.979 118.767,72.219 C129.427,65.746 142.08,60.034 156.739,55.086 C161.688,54.136 164.162,51.092 164.162,45.95 C164.162,43.476 163.259,41.339 161.45,39.527 C159.641,37.723 157.504,36.819 155.027,36.819 L82.226,36.819 C59.576,36.819 40.208,44.861 24.124,60.944 C8.042,77.026 0,96.394 0,119.044 L0,356.581 C0,379.232 8.042,398.599 24.125,414.683 C40.209,430.767 59.577,438.809 82.227,438.809 L319.768,438.809 C342.415,438.809 361.785,430.767 377.869,414.683 C393.954,398.599 401.996,379.233 401.996,356.581 L401.996,282.635 C401.995,278.829 399.996,276.071 395.996,274.356 Z" id="Path"></path>
        </g>
    </g>
</svg>