<svg width="12" height="16" viewBox="0 0 12 16" fill="none" xmlns="http://www.w3.org/2000/svg">
<path fill-rule="evenodd" clip-rule="evenodd" d="M7.5999 2.99999C7.5999 2.2268 8.2267 1.59999 8.9999 1.59999C9.7731 1.59999 10.3999 2.2268 10.3999 2.99999C10.3999 3.77319 9.7731 4.39999 8.9999 4.39999C8.2267 4.39999 7.5999 3.77319 7.5999 2.99999ZM8.9999 0.399994C7.56396 0.399994 6.3999 1.56405 6.3999 2.99999C6.3999 3.5006 6.54138 3.96817 6.78654 4.36488L4.91259 6.23883C4.43747 5.7231 3.75642 5.39999 2.9999 5.39999C1.56396 5.39999 0.399902 6.56405 0.399902 7.99999C0.399902 9.43593 1.56396 10.6 2.9999 10.6C3.75641 10.6 4.43746 10.2769 4.91258 9.76117L6.78653 11.6351C6.54138 12.0318 6.3999 12.4994 6.3999 13C6.3999 14.4359 7.56396 15.6 8.9999 15.6C10.4358 15.6 11.5999 14.4359 11.5999 13C11.5999 11.5641 10.4358 10.4 8.9999 10.4C8.49932 10.4 8.03177 10.5415 7.63507 10.7866L5.51395 8.66549C5.57003 8.45308 5.5999 8.23002 5.5999 7.99999C5.5999 7.76997 5.57003 7.54693 5.51396 7.33453L7.63509 5.2134C8.03179 5.45853 8.49932 5.59999 8.9999 5.59999C10.4358 5.59999 11.5999 4.43593 11.5999 2.99999C11.5999 1.56405 10.4358 0.399994 8.9999 0.399994ZM7.5999 13C7.5999 12.2268 8.2267 11.6 8.9999 11.6C9.7731 11.6 10.3999 12.2268 10.3999 13C10.3999 13.7732 9.7731 14.4 8.9999 14.4C8.2267 14.4 7.5999 13.7732 7.5999 13ZM2.9999 6.59999C2.2267 6.59999 1.5999 7.2268 1.5999 7.99999C1.5999 8.77319 2.2267 9.39999 2.9999 9.39999C3.7731 9.39999 4.3999 8.77319 4.3999 7.99999C4.3999 7.2268 3.7731 6.59999 2.9999 6.59999Z" fill="#6E6E6E"/>
</svg>
