<?xml version="1.0" encoding="UTF-8"?>
<svg width="14px" height="16px" viewBox="0 0 14 16" version="1.1" xmlns="http://www.w3.org/2000/svg" xmlns:xlink="http://www.w3.org/1999/xlink">
    <!-- Generator: Sketch 49 (51002) - http://www.bohemiancoding.com/sketch -->
    <title>Page 1</title>
    <desc>Created with Sketch.</desc>
    <defs>
        <polygon id="path-1" points="0.0005 0.0001 13.805 0.0001 13.805 15.805 0.0005 15.805"></polygon>
    </defs>
    <g id="Design-flow-1-tablet" stroke="none" stroke-width="1" fill="none" fill-rule="evenodd">
        <g id="Page-1">
            <mask id="mask-2" fill="white">
                <use xlink:href="#path-1"></use>
            </mask>
            <g id="Clip-2"></g>
            <path d="M11.4035,11.0001 C10.6685,11.0001 10.0195,11.3361 9.5785,11.8551 L4.9575,9.0531 C4.9995,8.8691 5.0275,8.6821 5.0275,8.4851 C5.0275,8.0591 4.9105,7.6631 4.7225,7.3121 L9.7075,4.1041 C10.1425,4.5371 10.7415,4.8051 11.4035,4.8051 C12.7295,4.8051 13.8055,3.7291 13.8055,2.4021 C13.8055,1.0751 12.7295,0.0001 11.4035,0.0001 C10.0765,0.0001 9.0005,1.0751 9.0005,2.4021 C9.0005,2.7061 9.0625,2.9951 9.1665,3.2641 L4.0805,6.5351 C3.6505,6.1881 3.1105,5.9731 2.5135,5.9731 C1.1265,5.9731 0.0005,7.0981 0.0005,8.4851 C0.0005,9.8741 1.1265,11.0001 2.5135,11.0001 C3.3465,11.0001 4.0785,10.5901 4.5355,9.9671 L9.1045,12.7381 C9.0435,12.9501 9.0005,13.1701 9.0005,13.4021 C9.0005,14.7291 10.0765,15.8051 11.4035,15.8051 C12.7295,15.8051 13.8055,14.7291 13.8055,13.4021 C13.8055,12.0751 12.7295,11.0001 11.4035,11.0001" id="Fill-1" fill="#000000" mask="url(#mask-2)"></path>
        </g>
    </g>
</svg>